<svg width="37" height="41" viewBox="0 0 37 41" fill="none" xmlns="http://www.w3.org/2000/svg">
<path fill-rule="evenodd" clip-rule="evenodd" d="M5.79854 8.32545V16.0697C6.40555 15.9227 7.00165 15.7287 7.58131 15.4886C9.04883 14.8807 10.3823 13.9897 11.5054 12.8665C12.6286 11.7434 13.5196 10.4099 14.1275 8.94242C14.5074 8.02525 14.772 7.06693 14.9171 6.08938C11.8123 6.38997 8.74033 7.13533 5.79854 8.32545ZM0.106445 4.58301V16.4093V22.1014V22.2793C0.106445 32.2014 8.14995 40.2449 18.0721 40.2449C27.9943 40.2449 36.0378 32.2014 36.0378 22.2793V22.1014V16.4093V4.58301L33.407 3.43783C23.6269 -0.819365 12.5173 -0.819365 2.73726 3.43783L0.106445 4.58301ZM5.79959 22.4412C5.87284 28.1048 9.78208 32.8432 15.0482 34.1775C15.0456 32.5957 14.7328 31.0298 14.1275 29.5683C13.5196 28.1007 12.6286 26.7673 11.5054 25.6441C10.3823 24.5209 9.04883 23.63 7.58131 23.0221C7.00198 22.7822 6.40623 22.5882 5.79959 22.4412ZM17.8942 24.5457C17.2136 23.4919 16.4217 22.5105 15.5304 21.6192C14.639 20.7279 13.6577 19.936 12.6039 19.2553C13.6577 18.5747 14.639 17.7828 15.5304 16.8915C16.4217 16.0001 17.2136 15.0188 17.8942 13.965C18.5749 15.0188 19.3668 16.0001 20.2581 16.8915C21.1494 17.7828 22.1308 18.5747 23.1846 19.2553C22.1308 19.936 21.1494 20.7279 20.2581 21.6192C19.3668 22.5105 18.5749 23.4919 17.8942 24.5457ZM20.7403 34.262C26.2104 33.0494 30.3076 28.1868 30.3454 22.3606C29.6155 22.5142 28.8996 22.7353 28.2072 23.0221C26.7396 23.63 25.4062 24.5209 24.283 25.6441C23.1598 26.7673 22.2689 28.1007 21.661 29.5683C21.0531 31.0358 20.7403 32.6087 20.7403 34.1971V34.262ZM28.2072 15.4886C28.8997 15.7754 29.6157 15.9966 30.3457 16.1502V8.32546C27.2901 7.08927 24.094 6.33295 20.8665 6.05649C21.0105 7.04543 21.2768 8.01497 21.661 8.94242C22.2689 10.4099 23.1598 11.7434 24.283 12.8665C25.4062 13.9897 26.7396 14.8807 28.2072 15.4886Z" fill="#193070"></path>
</svg>